<?xml version="1.0" standalone="no"?>
<!DOCTYPE svg PUBLIC "-//W3C//DTD SVG 20010904//EN"
 "http://www.w3.org/TR/2001/REC-SVG-20010904/DTD/svg10.dtd">
<svg version="1.0" xmlns="http://www.w3.org/2000/svg"
 width="391.000000pt" height="129.000000pt" viewBox="0 0 391.000000 129.000000"
 preserveAspectRatio="xMidYMid meet">
<metadata>
Created by potrace 1.16, written by Peter Selinger 2001-2019
</metadata>
<g transform="translate(0.000000,129.000000) scale(0.100000,-0.100000)"
fill="#000000" stroke="none">
<path d="M3374 1273 c3 -10 -15 -76 -40 -148 -85 -244 -140 -475 -150 -623 -5
-74 -3 -92 14 -122 17 -32 64 -61 77 -49 2 3 0 23 -6 45 -23 79 10 242 126
634 49 167 54 216 25 253 -24 31 -55 37 -46 10z"/>
<path d="M2435 1093 c-49 -95 -51 -98 -92 -106 -60 -11 -55 -50 7 -59 29 -4
29 9 1 -173 -38 -244 -46 -412 -25 -488 8 -26 60 -50 83 -38 16 9 17 16 10 58
-15 77 20 348 72 569 l21 91 70 15 c63 14 68 13 62 -1 -67 -157 -107 -360
-108 -551 -1 -170 9 -200 68 -200 44 0 65 25 82 97 21 89 18 184 -10 270 -6
19 -1 25 43 44 28 12 51 25 51 29 0 18 -34 18 -70 0 -49 -25 -50 -25 -50 4 0
14 25 54 65 101 60 72 80 106 55 90 -6 -3 -7 1 -4 9 3 9 10 14 16 13 5 -1 14
8 19 21 5 14 5 22 -2 22 -5 0 -7 11 -3 25 4 16 2 25 -6 25 -7 0 -10 -7 -6 -15
3 -8 1 -15 -4 -15 -6 0 -10 -6 -10 -14 0 -17 -79 -136 -90 -136 -12 0 27 133
61 208 31 69 49 79 49 28 0 -19 5 -38 10 -41 6 -4 10 5 10 20 0 17 4 24 11 19
17 -10 0 38 -21 60 -37 38 -84 20 -126 -50 -10 -15 -14 -17 -25 -6 -7 6 -35
12 -62 12 -43 0 -48 2 -42 18 3 9 11 36 18 59 10 39 9 44 -13 63 -45 39 -61
28 -115 -77z"/>
<path d="M2015 1040 c-33 -37 -24 -79 29 -126 l46 -43 -10 -46 c-17 -75 -68
-196 -105 -250 -29 -42 -32 -51 -19 -58 37 -21 129 121 169 260 21 71 22 72
43 57 12 -8 22 -22 22 -31 0 -9 -18 -71 -39 -137 -48 -149 -57 -202 -41 -253
18 -55 47 -83 87 -83 34 0 60 29 35 38 -7 2 -19 11 -28 19 -21 21 -11 86 32
223 45 139 45 179 0 218 -19 16 -48 38 -65 48 -26 15 -31 25 -31 56 0 47 -13
81 -41 107 -29 26 -61 27 -84 1z"/>
<path d="M1525 902 c-30 -18 -63 -51 -104 -102 l-20 -25 -1 26 c0 30 -41 79
-66 79 -12 0 -15 -6 -10 -23 3 -13 -10 -140 -29 -282 -19 -142 -35 -275 -35
-296 0 -43 21 -69 56 -69 22 0 24 4 24 45 0 45 26 255 36 288 3 9 9 15 13 13
4 -3 30 5 57 18 88 41 204 193 204 268 0 35 -40 78 -72 78 -13 0 -37 -8 -53
-18z m85 -30 c0 -57 -122 -225 -189 -261 -23 -13 -23 -12 -17 15 18 73 84 191
126 227 48 40 80 48 80 19z"/>
<path d="M544 878 c-16 -11 -66 -57 -111 -102 -46 -44 -83 -78 -83 -75 0 3 7
29 16 58 8 29 14 69 12 89 -3 34 -6 37 -36 40 -27 3 -39 -4 -80 -46 -26 -27
-74 -87 -105 -133 -31 -45 -57 -80 -57 -77 0 3 7 40 16 82 18 88 9 134 -31
160 -34 22 -69 21 -60 -1 17 -40 16 -78 -5 -188 -12 -63 -19 -123 -15 -134 8
-27 53 -45 73 -29 8 7 52 70 98 139 83 128 113 164 99 118 -50 -155 -46 -209
16 -209 23 0 40 16 97 88 64 80 132 155 138 149 1 -1 -12 -42 -28 -92 -18 -52
-33 -120 -36 -161 -4 -69 -3 -73 21 -89 39 -25 63 -17 59 21 -2 19 19 97 52
195 31 90 56 171 56 181 0 39 -63 49 -106 16z"/>
<path d="M723 838 c0 -24 -12 -81 -27 -127 -30 -93 -35 -163 -15 -187 7 -8 26
-22 42 -30 26 -14 31 -14 53 1 13 8 41 40 61 70 20 31 38 54 39 52 9 -9 -49
-317 -73 -389 -26 -80 -77 -168 -100 -176 -50 -15 -5 204 62 302 l24 35 -22 7
c-30 9 -67 -38 -105 -134 -54 -138 -51 -216 8 -247 48 -25 77 -19 125 26 92
85 135 221 166 529 12 113 24 224 26 247 4 34 1 43 -15 52 -25 13 -35 1 -90
-109 -45 -89 -110 -186 -119 -176 -3 3 2 37 12 76 22 90 17 161 -15 195 -13
14 -26 25 -30 25 -4 0 -7 -19 -7 -42z"/>
<path d="M1802 835 c-22 -25 -48 -45 -59 -45 -40 0 -92 -95 -93 -168 0 -82 44
-132 118 -132 39 0 48 5 93 52 67 70 109 156 109 224 0 44 -5 57 -29 83 -45
48 -88 44 -139 -14z m107 -63 c-13 -59 -43 -115 -86 -163 -32 -35 -80 -69 -98
-69 -9 0 -5 82 7 121 12 43 19 47 38 24 7 -8 20 -15 30 -15 13 0 16 6 13 25
-6 28 26 85 64 115 34 27 44 15 32 -38z"/>
<path d="M2971 835 c-23 -25 -50 -45 -60 -45 -46 0 -90 -86 -91 -174 0 -53 3
-61 34 -92 28 -28 42 -34 75 -34 36 0 49 7 91 46 95 89 145 233 103 294 -46
67 -94 68 -152 5z m108 -55 c-13 -59 -45 -122 -86 -169 -30 -36 -79 -71 -98
-71 -9 0 -5 96 6 129 12 35 21 38 39 16 17 -20 44 -20 36 1 -13 33 78 155 104
139 4 -3 4 -23 -1 -45z"/>
<path d="M3736 835 c-24 -25 -51 -45 -62 -45 -12 0 -34 -17 -54 -42 -55 -71
-56 -73 -43 -64 7 4 -15 -31 -50 -77 -34 -47 -63 -81 -65 -77 -2 5 6 40 17 78
33 109 28 153 -20 177 -42 22 -46 20 -53 -37 -4 -29 -16 -87 -27 -130 -21 -86
-25 -178 -7 -196 7 -7 22 -12 34 -12 24 0 79 69 140 174 l28 50 8 -35 c19 -78
55 -109 124 -109 79 0 197 167 199 277 0 49 -3 57 -33 84 -49 44 -85 40 -136
-16z m103 -82 c-26 -95 -143 -230 -180 -208 -13 8 -6 82 12 135 l11 31 22 -20
c28 -26 46 -27 39 -2 -7 26 20 72 64 111 33 29 38 31 41 16 2 -10 -2 -38 -9
-63z"/>
</g>
</svg>
